<svg width="22" height="23" viewBox="0 0 22 23" fill="none" xmlns="http://www.w3.org/2000/svg">
<path d="M5.71558 15.9411C6.5166 16.6783 7.50397 17.0449 8.47299 17.2411C8.36029 17.4811 8.27021 17.7557 8.2101 18.0635C7.966 18.1557 7.71004 18.2057 7.45166 18.2119C7.21316 18.2111 6.97306 18.159 6.74377 18.022C6.51335 17.8844 6.2648 17.6436 6.03754 17.2206L6.03674 17.2191L6.02899 17.2045C6.02268 17.1928 6.01405 17.1771 6.00312 17.158C5.98129 17.12 5.95008 17.068 5.9095 17.0064C5.82882 16.884 5.70856 16.7199 5.54839 16.551C5.23332 16.2188 4.7255 15.8293 4.02979 15.7633L4.00625 15.7611H3.9826H3.97789C3.94473 15.7611 3.84703 15.763 3.7321 15.7809C3.63607 15.7958 3.44066 15.8336 3.2765 15.9557C3.18427 16.0242 3.07877 16.1369 3.03071 16.3051C2.98192 16.4759 3.01136 16.6372 3.06636 16.7651C3.16367 16.9916 3.37152 17.1876 3.61234 17.368L3.64592 17.3931L3.67591 17.4086C3.67669 17.4091 3.67768 17.4097 3.67886 17.4104C3.68684 17.4154 3.70375 17.4263 3.72794 17.4444C3.77623 17.4806 3.85408 17.5456 3.9483 17.6488C4.13437 17.8527 4.39091 18.2129 4.60789 18.809L4.61146 18.8207C4.61728 18.8392 4.62541 18.8638 4.63615 18.8935C4.65759 18.953 4.68966 19.0338 4.73486 19.1288C4.82485 19.3181 4.96951 19.5692 5.19065 19.8211C5.64313 20.3365 6.39697 20.8307 7.56976 20.8307L7.5738 20.8307C7.76181 20.8292 7.94946 20.8171 8.13592 20.7945C8.13796 21.0806 8.14018 21.3328 8.14204 21.5444C8.1445 21.8236 8.14633 22.0322 8.14633 22.155C8.14633 22.1753 8.14331 22.1947 8.13861 22.21C8.13668 22.2163 8.13477 22.221 8.1332 22.2244C8.12752 22.2253 8.1186 22.2263 8.10574 22.2263L8.10396 22.2263C8.08991 22.2264 8.07619 22.2254 8.06281 22.2235C4.10918 20.7658 1.22461 16.6642 1.22461 11.7856C1.22461 5.66377 5.75729 0.773438 11.2556 0.773438C16.7539 0.773438 21.2866 5.66377 21.2866 11.7856C21.2866 16.6588 18.4073 20.7645 14.4504 22.2227C14.4332 22.2252 14.4159 22.2264 14.3986 22.2263H14.3961C14.3859 22.2263 14.3784 22.2257 14.373 22.225C14.3716 22.2218 14.37 22.2175 14.3685 22.2122C14.3635 22.1956 14.3602 22.1739 14.3602 22.1499C14.3602 22.0274 14.3617 21.8113 14.3637 21.5198C14.3648 21.3693 14.366 21.1987 14.3672 21.0105C14.3707 20.4599 14.3742 19.7633 14.3742 18.9925C14.3742 18.2837 14.2387 17.6932 14.0206 17.2324C14.991 17.0389 15.9794 16.6763 16.7815 15.9428C17.8233 14.9902 18.4691 13.4898 18.4691 11.1842C18.4691 9.92301 18.0877 8.85629 17.4444 7.99529C17.5968 7.43806 17.7706 6.30441 17.2545 4.87943L17.1645 4.63081L16.9083 4.56529C16.788 4.53454 16.6642 4.52083 16.5402 4.5246C16.0417 4.52695 15.1455 4.7239 13.7914 5.68506C12.1244 5.23373 10.3774 5.23373 8.71041 5.68506C7.35631 4.7239 6.46014 4.52695 5.96156 4.5246C5.83761 4.52083 5.71376 4.53454 5.59353 4.56529L5.33734 4.63081L5.24729 4.87943C4.73144 6.30371 4.90486 7.43694 5.05719 7.99447C4.41345 8.85225 4.03272 9.91951 4.03272 11.1842C4.03272 13.4849 4.67737 14.9857 5.71558 15.9411ZM14.3961 22.7263C14.4593 22.7267 14.5223 22.7199 14.5841 22.7062L13.5046 17.3208C13.7203 17.7145 13.8742 18.2692 13.8742 18.9925C13.8742 20.0223 13.8679 20.9196 13.8638 21.5131C13.8617 21.8065 13.8602 22.0256 13.8602 22.1499C13.8602 22.4207 14.0059 22.7263 14.3961 22.7263Z" fill="white" stroke="white"/>
</svg>
