<svg width="26" height="26" viewBox="0 0 26 26" fill="none" xmlns="http://www.w3.org/2000/svg">
<path d="M12.7522 0.301117C9.76154 0.301244 6.86845 1.39246 4.59065 3.37951C2.31285 5.36656 0.798977 8.11978 0.319904 11.1465C-0.159169 14.1733 0.427824 17.2761 1.97585 19.8997C3.52388 22.5233 5.93192 24.4966 8.76911 25.4664C9.39886 25.5794 9.63501 25.192 9.63501 24.853C9.63501 24.5463 9.61926 23.5293 9.61926 22.4478C6.45475 23.0451 5.63608 21.6569 5.38418 20.9305C5.10467 20.2241 4.66158 19.598 4.09319 19.1065C3.65237 18.8643 3.02262 18.2671 4.07744 18.251C4.48021 18.2958 4.86651 18.4395 5.20361 18.6699C5.5407 18.9003 5.81866 19.2106 6.01393 19.5746C6.18619 19.8919 6.41783 20.1712 6.69556 20.3965C6.97329 20.6219 7.29166 20.7888 7.63243 20.8878C7.97319 20.9867 8.32966 21.0158 8.6814 20.9733C9.03313 20.9307 9.37323 20.8175 9.68219 20.6399C9.73672 19.9834 10.0221 19.3696 10.4852 18.9128C7.68277 18.59 4.75443 17.4761 4.75443 12.5367C4.73673 11.2533 5.19864 10.0116 6.04542 9.06622C5.66037 7.95078 5.70542 6.72666 6.17137 5.64413C6.17137 5.64413 7.22616 5.30514 9.63499 6.96777C11.6959 6.38663 13.8716 6.38663 15.9325 6.96777C18.3412 5.28901 19.3961 5.64413 19.3961 5.64413C19.8621 6.72664 19.9072 7.95079 19.5221 9.06622C20.3714 10.01 20.8337 11.2528 20.813 12.5367C20.813 17.4923 17.8689 18.59 15.0666 18.9128C15.3672 19.2252 15.5987 19.6002 15.7453 20.0124C15.892 20.4246 15.9505 20.8644 15.9167 21.3018C15.9167 23.029 15.901 24.4172 15.901 24.853C15.901 25.192 16.1371 25.5956 16.7669 25.4664C19.5991 24.4887 22.0002 22.5108 23.5416 19.8859C25.0831 17.2609 25.6645 14.1597 25.1821 11.1359C24.6997 8.11206 23.1849 5.36241 20.9081 3.37778C18.6313 1.39315 15.7407 0.302712 12.7522 0.301117V0.301117Z" fill="white"/>
</svg>
