<svg width="21" height="23" viewBox="0 0 21 23" fill="none" xmlns="http://www.w3.org/2000/svg">
<path d="M20.1933 2.56412V2.56689V20.8529C20.1933 21.6403 19.6395 22.2263 19.0481 22.2263H1.93788C1.31125 22.2263 0.685547 21.601 0.685547 20.8529V2.56689C0.685547 1.88559 1.25015 1.36426 1.93788 1.36426H19.0531C19.7 1.36426 20.1973 1.84489 20.1933 2.56412ZM6.54245 19.5873H7.04245V19.0873V9.34944V8.84944H6.54245H3.60457H3.10457V9.34944V19.0873V19.5873H3.60457H6.54245ZM7.26179 6.18897H7.26191L7.26167 6.17768C7.24897 5.60221 7.0645 5.06066 6.70101 4.65608C6.33153 4.24482 5.8064 4.00908 5.19119 4.00908C4.57685 4.00908 4.04458 4.24534 3.66932 4.65408C3.29789 5.05864 3.10506 5.60415 3.10506 6.18871C3.10506 7.34214 3.8842 8.36885 5.15408 8.36885H5.17517C5.79948 8.36885 6.33262 8.12666 6.70555 7.71451C7.07365 7.3077 7.26149 6.76319 7.26179 6.18897ZM17.2797 19.5873H17.7797L17.7797 19.0873L17.7802 13.3983V13.3983C17.7802 11.8593 17.3959 10.6601 16.6887 9.83819C15.9742 9.00785 14.9802 8.62155 13.8928 8.62155C13.0047 8.62155 12.3434 8.89192 11.8433 9.27136C11.8091 9.29732 11.7757 9.32371 11.7432 9.35047V9.34944V8.84944H11.2432H8.30533H7.80533V9.34944V19.0873V19.5873H8.30533H11.2432H11.7432V19.0873V13.5408C11.7432 13.2626 11.7671 13.065 11.8106 12.9538L11.8106 12.9538L11.8131 12.9472C11.9886 12.4788 12.3321 12.1157 12.8513 12.1157C13.2196 12.1157 13.4293 12.2526 13.5732 12.4791C13.7393 12.7406 13.8418 13.1663 13.8418 13.7629V19.0873V19.5873H14.3418H17.2797Z" fill="white" stroke="white"/>
</svg>
